<svg xmlns="http://www.w3.org/2000/svg" viewBox="0 0 512 640" x="0px" y="0px"><g><path d="M432,56a24,24,0,0,0-48,0v8h48Z"/><path d="M203.711,108.644a8,8,0,0,1,5,12.075,4.761,4.761,0,0,0,6.569,6.567,8,8,0,0,1,12.074,5,4.761,4.761,0,0,0,9.288,0,8,8,0,0,1,12.074-5,4.761,4.761,0,0,0,6.569-6.567,8,8,0,0,1,5-12.075,4.761,4.761,0,0,0,0-9.288,8,8,0,0,1-5-12.075,4.761,4.761,0,0,0-6.568-6.567,8,8,0,0,1-12.075-5,4.761,4.761,0,0,0-9.288,0,8,8,0,0,1-12.075,5,4.761,4.761,0,0,0-6.568,6.567,8,8,0,0,1-5,12.075,4.761,4.761,0,0,0,0,9.288Z"/><path d="M96,56V432H312a8,8,0,0,1,8,8v16a24,24,0,0,0,48,0V56a39.792,39.792,0,0,1,8.019-24H120A24.028,24.028,0,0,0,96,56Zm40,328H120V368h16Zm0-64H120V304h16Zm208,64H296V368h48Zm0-32H216V336H344Zm0-64H296V272h48ZM216,184V168h80v16Zm56,16v16H192V200ZM192.078,87.464a20.965,20.965,0,0,1,23.386-23.386,20.964,20.964,0,0,1,33.072,0,20.965,20.965,0,0,1,23.386,23.386,20.964,20.964,0,0,1,0,33.072,20.965,20.965,0,0,1-23.386,23.386,20.964,20.964,0,0,1-33.072,0,20.966,20.966,0,0,1-23.386-23.386,20.964,20.964,0,0,1,0-33.072ZM168,168h32v16H168Zm-16,72H344v16H152Zm0,32H280v16H152Zm0,32H344v16H152Zm0,32h48v16H152Zm0,32H280v16H152Zm0,32H344v16H152ZM136,256H120V240h16Z"/><path d="M304,448H32v8a24.027,24.027,0,0,0,24,24H312.019A39.792,39.792,0,0,1,304,456Z"/><path d="M432,128a16.019,16.019,0,0,0-16,16h32A16.019,16.019,0,0,0,432,128Z"/><rect x="416" y="160" width="32" height="64"/><polygon points="432 430.111 443.056 408 420.944 408 432 430.111"/><rect x="416" y="240" width="32" height="16"/><rect x="416" y="272" width="32" height="120"/><path d="M472,144h-8v16h8a8.009,8.009,0,0,1,8,8v88h16V168A24.028,24.028,0,0,0,472,144Z"/></g><text x="0" y="527" fill="#000000" font-size="5px" font-weight="bold" font-family="'Helvetica Neue', Helvetica, Arial-Unicode, Arial, Sans-serif">Created by monkik</text><text x="0" y="532" fill="#000000" font-size="5px" font-weight="bold" font-family="'Helvetica Neue', Helvetica, Arial-Unicode, Arial, Sans-serif">from the Noun Project</text></svg>