<svg xmlns="http://www.w3.org/2000/svg" xmlns:xlink="http://www.w3.org/1999/xlink" version="1.1" x="0px" y="0px" viewBox="0 0 50 62.5" enable-background="new 0 0 50 50" xml:space="preserve"><g><g><g><path d="M4.8,36.1l9,9c0.3,0.3,0.3,0.7,0,0.9l-2.3,2.3c-0.3,0.3-0.7,0.3-0.9,0l-9-9c-0.3-0.3-0.3-0.7,0-0.9l2.3-2.3     C4.2,35.9,4.6,35.9,4.8,36.1z"/></g><g><g><path d="M22.3,19.4l8.3,8.2l-8.1,8.1c-0.4,0.4-1,0.4-1.4,0l-1-1l-6.9,6.9l-4.8-4.8l6.9-6.9l-1-1c-0.4-0.4-0.4-1,0-1.4      C20.7,21,21,20.7,22.3,19.4z"/></g><g><polygon points="31.8,7.5 42.4,18.1 33.1,27.4 22.6,16.8     "/></g><g><path d="M48.3,16.9l-1.5,1.5c-0.4,0.4-0.9,0.3-1.3,0L31.7,4.5c-0.4-0.4-0.4-0.9,0-1.3l1.5-1.5c0.4-0.4,0.9-0.4,1.3,0l13.9,13.9      C48.7,16,48.7,16.5,48.3,16.9z"/></g></g></g><g><g><path d="M4.8,36.1l9,9c0.3,0.3,0.3,0.7,0,0.9l-2.3,2.3c-0.3,0.3-0.7,0.3-0.9,0l-9-9c-0.3-0.3-0.3-0.7,0-0.9l2.3-2.3     C4.2,35.9,4.6,35.9,4.8,36.1z"/></g><g><g><path d="M22.3,19.4l8.3,8.2l-8.1,8.1c-0.4,0.4-1,0.4-1.4,0l-1-1l-6.9,6.9l-4.8-4.8l6.9-6.9l-1-1c-0.4-0.4-0.4-1,0-1.4      C20.7,21,21,20.7,22.3,19.4z"/></g><g><polygon points="31.8,7.5 42.4,18.1 33.1,27.4 22.6,16.8     "/></g><g><path d="M48.3,16.9l-1.5,1.5c-0.4,0.4-0.9,0.3-1.3,0L31.7,4.5c-0.4-0.4-0.4-0.9,0-1.3l1.5-1.5c0.4-0.4,0.9-0.4,1.3,0l13.9,13.9      C48.7,16,48.7,16.5,48.3,16.9z"/></g></g></g><g><g><path d="M4.8,36.1l9,9c0.3,0.3,0.3,0.7,0,0.9l-2.3,2.3c-0.3,0.3-0.7,0.3-0.9,0l-9-9c-0.3-0.3-0.3-0.7,0-0.9l2.3-2.3     C4.2,35.9,4.6,35.9,4.8,36.1z"/></g><g><g><path d="M22.3,19.4l8.3,8.2l-8.1,8.1c-0.4,0.4-1,0.4-1.4,0l-1-1l-6.9,6.9l-4.8-4.8l6.9-6.9l-1-1c-0.4-0.4-0.4-1,0-1.4      C20.7,21,21,20.7,22.3,19.4z"/></g><g><polygon points="31.8,7.5 42.4,18.1 33.1,27.4 22.6,16.8     "/></g><g><path d="M48.3,16.9l-1.5,1.5c-0.4,0.4-0.9,0.3-1.3,0L31.7,4.5c-0.4-0.4-0.4-0.9,0-1.3l1.5-1.5c0.4-0.4,0.9-0.4,1.3,0l13.9,13.9      C48.7,16,48.7,16.5,48.3,16.9z"/></g></g></g></g><text x="0" y="65" fill="#000000" font-size="5px" font-weight="bold" font-family="'Helvetica Neue', Helvetica, Arial-Unicode, Arial, Sans-serif">Created by Vectors Market</text><text x="0" y="70" fill="#000000" font-size="5px" font-weight="bold" font-family="'Helvetica Neue', Helvetica, Arial-Unicode, Arial, Sans-serif">from the Noun Project</text></svg>