<svg xmlns="http://www.w3.org/2000/svg" viewBox="0 0 512 640" x="0px" y="0px"><g><path d="M440,80a8,8,0,0,0,8-8V56a40.045,40.045,0,0,0-40-40H120A40.045,40.045,0,0,0,80,56V416H96V56a24.028,24.028,0,0,1,24-24H376.019A39.792,39.792,0,0,0,368,56V456a24,24,0,0,1-48,0V440a8,8,0,0,0-8-8H24a8,8,0,0,0-8,8v16a40.045,40.045,0,0,0,40,40H344a40.045,40.045,0,0,0,40-40V80ZM56,480a24.027,24.027,0,0,1-24-24v-8H304v8a39.792,39.792,0,0,0,8.019,24ZM408,32a24.028,24.028,0,0,1,24,24v8H384V56A24.028,24.028,0,0,1,408,32Z"/><path d="M184,104a20.417,20.417,0,0,0,8.078,16.536,20.966,20.966,0,0,0,23.386,23.386,20.964,20.964,0,0,0,33.072,0,20.965,20.965,0,0,0,23.386-23.386,20.964,20.964,0,0,0,0-33.072,20.965,20.965,0,0,0-23.386-23.386,20.964,20.964,0,0,0-33.072,0,20.965,20.965,0,0,0-23.386,23.386A20.417,20.417,0,0,0,184,104Zm19.711-4.644a8,8,0,0,0,5-12.075,4.761,4.761,0,0,1,6.568-6.567,8,8,0,0,0,12.075-5,4.761,4.761,0,0,1,9.288,0,8,8,0,0,0,12.075,5,4.761,4.761,0,0,1,6.568,6.567,8,8,0,0,0,5,12.075,4.761,4.761,0,0,1,0,9.288,8,8,0,0,0-5,12.075,4.761,4.761,0,0,1-6.569,6.567,8,8,0,0,0-12.074,5,4.761,4.761,0,0,1-9.288,0,8,8,0,0,0-12.074-5,4.761,4.761,0,0,1-6.569-6.567,8,8,0,0,0-5-12.075,4.761,4.761,0,0,1,0-9.288Z"/><rect x="192" y="200" width="80" height="16"/><rect x="216" y="168" width="80" height="16"/><rect x="168" y="168" width="32" height="16"/><rect x="152" y="240" width="192" height="16"/><rect x="120" y="240" width="16" height="16"/><rect x="152" y="272" width="128" height="16"/><rect x="296" y="272" width="48" height="16"/><rect x="152" y="304" width="192" height="16"/><rect x="120" y="304" width="16" height="16"/><rect x="152" y="336" width="48" height="16"/><rect x="216" y="336" width="128" height="16"/><rect x="152" y="368" width="128" height="16"/><rect x="120" y="368" width="16" height="16"/><rect x="152" y="400" width="192" height="16"/><rect x="296" y="368" width="48" height="16"/><path d="M472,144h-8a32,32,0,0,0-64,0V400a7.949,7.949,0,0,0,.851,3.575l-.006,0,24,48a8,8,0,0,0,14.31,0l24-48-.006,0A7.949,7.949,0,0,0,464,400V160h8a8.009,8.009,0,0,1,8,8v88h16V168A24.028,24.028,0,0,0,472,144Zm-40-16a16.019,16.019,0,0,1,16,16H416A16.019,16.019,0,0,1,432,128Zm16,264H416V272h32Zm0-136H416V240h32ZM432,430.111,420.944,408h22.112ZM448,224H416V160h32Z"/></g><text x="0" y="527" fill="#000000" font-size="5px" font-weight="bold" font-family="'Helvetica Neue', Helvetica, Arial-Unicode, Arial, Sans-serif">Created by monkik</text><text x="0" y="532" fill="#000000" font-size="5px" font-weight="bold" font-family="'Helvetica Neue', Helvetica, Arial-Unicode, Arial, Sans-serif">from the Noun Project</text></svg>