<svg xmlns="http://www.w3.org/2000/svg" data-name="Calque 2" viewBox="0 0 100 125" x="0px" y="0px"><title>fb_contactPlan de travail 1 copie 36</title><path d="M50.51,50.62A22.49,22.49,0,1,0,28,28.13,22.51,22.51,0,0,0,50.51,50.62Zm0-41A18.49,18.49,0,1,1,32,28.13,18.51,18.51,0,0,1,50.51,9.64Z"/><path d="M50.51,54.88c-23.86,0-37,8.13-37,22.91,0,9,15.91,15.86,37,15.86s37-6.82,37-15.86C87.51,63,74.37,54.88,50.51,54.88Zm0,34.77c-19.45,0-33-6.25-33-11.86,0-15.63,17.95-18.91,33-18.91s33,3.28,33,18.91C83.51,83.39,70,89.64,50.51,89.64Z"/><text x="0" y="115" fill="#000000" font-size="5px" font-weight="bold" font-family="'Helvetica Neue', Helvetica, Arial-Unicode, Arial, Sans-serif">Created by Florent B</text><text x="0" y="120" fill="#000000" font-size="5px" font-weight="bold" font-family="'Helvetica Neue', Helvetica, Arial-Unicode, Arial, Sans-serif">from the Noun Project</text></svg>